<svg xmlns="http://www.w3.org/2000/svg" width="59.411" height="59.411" viewBox="0 0 59.411 59.411"><g transform="translate(-300.442 -24.726)"><path d="M316.031,27.787a3.483,3.483,0,1,0,3.483,3.483A3.483,3.483,0,0,0,316.031,27.787Z" transform="translate(29.846 7.547)" fill="#fff"/><path d="M319.494,29.076a14.631,14.631,0,1,0,14.627,14.631A14.647,14.647,0,0,0,319.494,29.076Zm0,24a9.37,9.37,0,1,1,9.37-9.37A9.382,9.382,0,0,1,319.494,53.077Z" transform="translate(10.9 10.724)" fill="#fff"/><path d="M342.006,84.137H318.289A17.866,17.866,0,0,1,300.442,66.29V42.573a17.866,17.866,0,0,1,17.847-17.847h23.717a17.866,17.866,0,0,1,17.847,17.847V66.29A17.866,17.866,0,0,1,342.006,84.137ZM318.289,30.316a12.27,12.27,0,0,0-12.257,12.257V66.29a12.27,12.27,0,0,0,12.257,12.257h23.717A12.27,12.27,0,0,0,354.263,66.29V42.573a12.27,12.27,0,0,0-12.257-12.257Z" transform="translate(0 0)" fill="#fff"/></g></svg>