<svg xmlns="http://www.w3.org/2000/svg" width="53.395" height="53.269" viewBox="0 0 53.395 53.269"><g transform="translate(-217.746 -151.97)"><path d="M218.626,169.652H229.7v35.587H218.626Zm5.539-17.682a6.414,6.414,0,1,1-6.419,6.408,6.413,6.413,0,0,1,6.419-6.408" transform="translate(0 0)" fill="#fff"/><path d="M222.577,157.145h10.609v4.87h.145a11.637,11.637,0,0,1,10.476-5.751c11.2,0,13.266,7.366,13.266,16.951v19.517H246.018v-17.3c0-4.131-.082-9.44-5.751-9.44-5.754,0-6.635,4.495-6.635,9.134v17.6H222.577Z" transform="translate(14.068 12.507)" fill="#fff"/></g></svg>