<svg xmlns="http://www.w3.org/2000/svg" width="293.943" height="74" viewBox="0 0 293.943 74"><g transform="translate(-37.137 -29.265)"><path d="M49.879,36.134a8.989,8.989,0,0,1,7.238,3.477.96.96,0,0,1-.242,1.35l-2.895,2.75a.883.883,0,0,1-1.062-.1,3.827,3.827,0,0,0-6.658,2.657,3.8,3.8,0,0,0,3.763,3.9,4.168,4.168,0,0,0,3.28-1.492.793.793,0,0,1,1.062-.2l2.895,2.511c.434.384.674.867.337,1.35A8.642,8.642,0,0,1,49.832,56.4,10.275,10.275,0,0,1,39.46,46.269,10.38,10.38,0,0,1,49.879,36.134Z" transform="translate(2.202 6.511)" fill="#fff"/><path d="M52.421,37.95a.854.854,0,0,1,.822-1.256h5.5a.924.924,0,0,1,.82.53L63.276,46.2h.1l3.812-8.976a.872.872,0,0,1,.82-.53h5.452a.839.839,0,0,1,.818,1.256L59.513,69.886a.97.97,0,0,1-.82.577h-5.4a.863.863,0,0,1-.822-1.3l7.19-15.151Z" transform="translate(14.396 7.042)" fill="#fff"/><path d="M65.086,30.181A.946.946,0,0,1,66,29.265h5.357a.947.947,0,0,1,.915.916V44.172a9.72,9.72,0,0,1,4-.919c5.162,0,9.6,3.331,9.6,10.135,0,5.546-4.1,10.129-9.552,10.129a8.346,8.346,0,0,1-6.463-3.039l-.58,1.589c-.193.53-.53.966-1.011.966H66a.949.949,0,0,1-.915-.919ZM75.361,57.291a3.872,3.872,0,0,0,3.907-3.956,3.821,3.821,0,0,0-3.907-3.857A3.78,3.78,0,0,0,71.5,53.335,3.832,3.832,0,0,0,75.361,57.291Z" transform="translate(26.492)" fill="#fff"/><path d="M86.966,36.446a9.019,9.019,0,0,1,9.167,9.069,12.248,12.248,0,0,1-.1,1.305.933.933,0,0,1-.917.82H83.541a3.581,3.581,0,0,0,3.715,3.181,6.305,6.305,0,0,0,3.378-1.153.838.838,0,0,1,1.206,0l2.411,2.891a1.045,1.045,0,0,1-.049,1.4,9.828,9.828,0,0,1-7.139,2.748,10.133,10.133,0,0,1-.1-20.264Zm2.365,7.431a2.6,2.6,0,0,0-2.556-2.265,2.685,2.685,0,0,0-2.606,2.265Z" transform="translate(37.767 6.807)" fill="#fff"/><path d="M88.6,37.848a.919.919,0,0,1,.917-.919h2.265a.877.877,0,0,1,.871.58l.869,2.121a6.653,6.653,0,0,1,5.257-3.185c2.653,0,4.535.966,3.859,2.078l-2.363,3.857a.824.824,0,0,1-1.062.436,3.391,3.391,0,0,0-1.157-.243A2.565,2.565,0,0,0,95.5,45.322v9.985c0,.582-.29.919-1.062.919h-4.92a.951.951,0,0,1-.917-.919Z" transform="translate(48.783 6.807)" fill="#fff"/><path d="M77.059,49.67A8.995,8.995,0,0,1,84.3,53.147a.962.962,0,0,1-.242,1.352l-2.895,2.748a.883.883,0,0,1-1.062-.1A3.827,3.827,0,0,0,73.442,59.8a3.8,3.8,0,0,0,3.763,3.905,4.163,4.163,0,0,0,3.28-1.494.794.794,0,0,1,1.062-.195l2.895,2.509c.434.386.674.869.337,1.352a8.646,8.646,0,0,1-7.766,4.054A10.275,10.275,0,0,1,66.64,59.8,10.38,10.38,0,0,1,77.059,49.67Z" transform="translate(27.965 19.342)" fill="#fff"/><path d="M87.082,49.67A10.133,10.133,0,1,1,77.048,59.754,10.163,10.163,0,0,1,87.082,49.67Zm0,14.04a3.881,3.881,0,0,0,3.81-3.956,3.81,3.81,0,1,0-7.62,0A3.881,3.881,0,0,0,87.082,63.71Z" transform="translate(37.831 19.342)" fill="#fff"/><path d="M89.263,51.072a.919.919,0,0,1,.917-.919H92.45a1.081,1.081,0,0,1,.869.582l.771,1.928a9.086,9.086,0,0,1,6.8-2.994c5.984,0,9.167,4.585,9.167,10.084v8.779a.951.951,0,0,1-.917.919h-5.16a.918.918,0,0,1-.917-.919V59.515c0-1.928-1.11-3.617-3.28-3.617a3.516,3.516,0,0,0-3.668,3.374v9.262a.818.818,0,0,1-.867.919H90.18a.951.951,0,0,1-.917-.919Z" transform="translate(49.409 19.342)" fill="#fff"/><path d="M101.923,67.328,103.61,64a.829.829,0,0,1,1.013-.386,10.665,10.665,0,0,0,4.342,1.254A.849.849,0,0,0,109.88,64c0-.483-.288-1.159-2.748-2.028-3.763-1.3-5.4-3.471-5.4-6.465,0-3.23,2.316-5.838,7.527-5.838a12.764,12.764,0,0,1,6.416,1.5c.434.29.771.723.481,1.206l-1.784,3.28a.849.849,0,0,1-1.013.29,11.1,11.1,0,0,0-4.1-1.108c-.627,0-1.062.142-1.062.672,0,.483.53.966,2.17,1.545,3.909,1.35,6.609,2.895,6.609,6.755,0,3.378-2.7,6.128-8.152,6.128-3.185,0-5.6-.822-6.562-1.6C101.923,68.054,101.681,67.764,101.923,67.328Z" transform="translate(61.225 19.342)" fill="#fff"/><path d="M111.317,50.837a.919.919,0,0,1,.917-.919h5.16a.919.919,0,0,1,.917.919v8.925c0,1.975,1.11,3.713,3.087,3.713,1.882,0,2.895-1.784,2.895-3.426V50.837c0-.773.532-.919,1.013-.919h4.92a.919.919,0,0,1,.917.919V68.3a.951.951,0,0,1-.917.919H127.96a1.056,1.056,0,0,1-.916-.676l-.725-1.786a8.208,8.208,0,0,1-6.512,2.945c-5.742,0-8.491-4.632-8.491-10.131Z" transform="translate(70.314 19.577)" fill="#fff"/><path d="M124.177,43.4a.948.948,0,0,1,.917-.916H130.4a.948.948,0,0,1,.917.916V75.34a.951.951,0,0,1-.917.919h-5.308a.951.951,0,0,1-.917-.919Z" transform="translate(82.504 12.535)" fill="#fff"/><path d="M131.949,59.1h-1.254a.906.906,0,0,1-.867-.916V53.888a.878.878,0,0,1,.867-.919h1.254V47.616a.948.948,0,0,1,.917-.916h5.16a.905.905,0,0,1,.869.916v5.353h3.57a.891.891,0,0,1,.917.919v4.293a.918.918,0,0,1-.917.916H138.9v6.031c0,1.06.725,1.159,1.305,1.159a9.571,9.571,0,0,0,1.882-.339.843.843,0,0,1,1.06.629l1.06,4a.951.951,0,0,1-.625,1.106,24.771,24.771,0,0,1-5.838,1.065c-3.666,0-5.789-2.318-5.789-6.709Z" transform="translate(87.86 16.526)" fill="#fff"/><path d="M145.468,57.1a9.093,9.093,0,0,1,3.715.769c0-1.882-.29-2.844-2.6-2.844a20.488,20.488,0,0,0-4.825.723c-.725.24-1.062-.29-1.159-1.013l-.432-3.041a1.023,1.023,0,0,1,.723-1.3,33.548,33.548,0,0,1,6.416-.729c5.982,0,8.152,2.511,8.152,8.2V68.533a.951.951,0,0,1-.915.919h-2.123a.9.9,0,0,1-.867-.629l-.676-1.3a8.079,8.079,0,0,1-5.838,2.411c-3.812,0-6.658-2.558-6.658-6.372C138.376,59.852,141.078,57.1,145.468,57.1Zm1.252,8.1a2.075,2.075,0,1,0,0-4.149,2.048,2.048,0,0,0-2.073,2.028A2.1,2.1,0,0,0,146.721,65.206Z" transform="translate(95.963 19.342)" fill="#fff"/><path d="M149.675,51.072a.919.919,0,0,1,.917-.919h2.265a1.078,1.078,0,0,1,.871.582l.771,1.928a9.091,9.091,0,0,1,6.8-2.994c5.982,0,9.167,4.585,9.167,10.084v8.779a.951.951,0,0,1-.917.919h-5.162a.919.919,0,0,1-.917-.919V59.515c0-1.928-1.11-3.617-3.28-3.617a3.516,3.516,0,0,0-3.666,3.374v9.262a.819.819,0,0,1-.869.919h-5.064a.951.951,0,0,1-.917-.919Z" transform="translate(106.673 19.342)" fill="#fff"/><path d="M172.41,49.67a8.995,8.995,0,0,1,7.238,3.477.962.962,0,0,1-.242,1.352l-2.9,2.748a.88.88,0,0,1-1.06-.1,3.827,3.827,0,0,0-6.658,2.655,3.8,3.8,0,0,0,3.763,3.905,4.166,4.166,0,0,0,3.28-1.494.794.794,0,0,1,1.062-.195l2.895,2.509c.434.386.674.869.337,1.352a8.646,8.646,0,0,1-7.766,4.054A10.275,10.275,0,0,1,161.991,59.8,10.38,10.38,0,0,1,172.41,49.67Z" transform="translate(118.347 19.342)" fill="#fff"/><path d="M172.024,51.176a.856.856,0,0,1,.822-1.258h5.5a.923.923,0,0,1,.82.532l3.715,8.976h.1l3.812-8.976a.873.873,0,0,1,.82-.532h5.452a.84.84,0,0,1,.818,1.258L179.116,83.112a.967.967,0,0,1-.818.577h-5.405a.864.864,0,0,1-.82-1.3l7.19-15.149Z" transform="translate(127.766 19.577)" fill="#fff"/><path d="M187.87,54.884a4.7,4.7,0,0,1,4.632,4.632,4.648,4.648,0,0,1-4.632,4.537,4.6,4.6,0,0,1-4.535-4.537A4.647,4.647,0,0,1,187.87,54.884Z" transform="translate(138.578 24.284)" fill="#fff"/><g transform="translate(37.137 38.418)"><path d="M51.5,62.684a14.36,14.36,0,1,1,14.36-14.36A14.376,14.376,0,0,1,51.5,62.684Zm0-27.746A13.386,13.386,0,1,0,64.883,48.324,13.4,13.4,0,0,0,51.5,34.938Z" transform="translate(-37.137 -33.964)" fill="#fff"/></g></g></svg>